<svg width="540" height="144" viewBox="0 0 540 144" fill="none" xmlns="http://www.w3.org/2000/svg">
<path fill-rule="evenodd" clip-rule="evenodd" d="M356.505 106.602L428.155 143.301L354.757 89.1262L342.524 97.8641L290.097 61.165L270.874 82.1359L249.903 59.4175L267.379 47.1845L255.146 66.4078L307.573 22.7184L323.301 36.699L305.825 50.6796L332.039 43.6893L400.194 97.8641L389.709 80.3884L401.942 71.6505L452.621 104.854L468.35 96.1165L540 132.816L466.602 80.3884L454.369 87.3786L401.942 50.6796L380.971 71.6505L340.777 26.2136L333.786 31.4563L307.573 0L272.621 40.1942L263.883 34.9515L242.913 50.6796L230.68 36.699L221.942 41.9417L195.728 10.4854L162.524 48.932L153.786 45.4369L80.3884 97.8641L66.4078 85.6311L52.4272 99.6116L40.1942 89.1262L0 120.583L38.4466 99.6116L52.4272 108.35L66.4078 96.1165L78.6408 108.35L155.534 57.6699L145.049 75.1456L195.728 31.4563L213.204 47.1845L193.981 61.165L220.194 52.4272L288.35 108.35L277.864 90.8738L291.845 82.1359L340.777 115.34L356.505 106.602Z" fill="white" fill-opacity="0.35"/>
</svg>
