<svg width="180" height="63" viewBox="0 0 180 63" fill="none" xmlns="http://www.w3.org/2000/svg">
<path d="M84.7826 9.21764C83.4783 7.9133 82.1739 6.79528 80.4969 5.49094C79.0062 11.64 77.7019 17.2301 76.3975 22.6338C76.5838 22.6338 76.7702 22.8201 76.9565 22.8201C79.5652 18.7207 82.3602 14.6214 84.9689 10.522C85.1553 10.1493 84.9689 9.40398 84.7826 9.21764Z" fill="white"/>
<path d="M58.323 17.7891C58.323 17.9754 58.323 18.1617 58.323 18.3481C60.559 19.6524 62.795 20.7704 64.8447 22.2611C65.7764 22.8201 66.5217 23.7518 66.8944 24.6835C68.9441 30.6462 70.8074 36.7953 72.8571 42.758C73.2298 43.6897 73.6025 44.8077 73.9752 45.7394C74.1615 45.7394 74.3478 45.553 74.5342 45.553C74.1615 44.2487 73.9752 42.9443 73.6025 41.64C72.4845 36.6089 72.4845 36.6089 77.1429 35.3046C71.9255 29.5282 69.6894 22.8201 71.9255 14.8077C66.8944 16.1121 62.6087 17.0437 58.323 17.7891Z" fill="white"/>
<path d="M53.6646 30.4599C51.4286 31.7642 49.5652 31.2052 48.2609 29.1555C47.8882 28.5965 47.5155 28.0375 46.9565 27.8512C46.2112 27.6649 45.2795 27.2922 44.7205 27.6649C41.3665 29.7145 38.1987 32.1369 34.8447 34.3729C33.913 34.9319 33.7267 35.4909 34.0994 36.609C36.1491 41.4537 37.8261 46.4847 39.8758 51.3295C40.0621 51.7021 40.2484 51.8885 40.8074 52.6338C41.1801 50.2114 41.1801 48.1618 41.5528 46.2984C41.9255 44.435 42.8571 42.758 43.6025 40.8947C43.7888 40.8947 43.9751 41.081 44.1615 41.081C45.4658 44.0624 46.7702 46.8574 48.0745 49.8388C48.2609 49.8388 48.4472 49.6524 48.8199 49.6524C48.6335 47.2301 48.2609 44.8077 48.0745 42.199C48.2609 42.0127 48.4472 41.8263 48.6335 41.64C49.7515 42.9444 50.6832 44.8077 51.9876 45.5531C58.5093 48.9071 65.4037 52.0748 72.1118 55.2425C72.4845 55.4288 73.0435 55.6152 73.6025 55.6152C72.4845 53.3791 71.3665 51.3295 69.8758 49.6524C68.1987 47.6027 66.7081 45.7394 68.0124 42.9444C66.8944 42.5717 66.1491 42.3854 65.4037 42.199C61.3043 41.64 60 38.286 58.323 35.3046C57.3913 33.8139 56.646 32.1369 55.7143 30.6462C55.3416 30.4599 54.2236 30.0872 53.6646 30.4599Z" fill="white"/>
<path d="M150 46.4847C153.727 45.5531 153.727 45.5531 155.59 48.9071C156.149 50.0251 156.894 50.9568 157.453 52.0748C159.876 56.7332 164.72 57.8512 168.261 61.0189C168.447 60.8326 168.447 60.8326 168.634 60.6462C168.447 60.0872 168.075 59.5282 167.888 58.9692C165.466 54.6835 162.857 50.5841 160.994 46.1121C159.503 42.758 157.64 41.081 153.913 41.8264C152.609 42.0127 151.677 41.4537 150.932 40.3357C149.627 38.286 148.323 36.2363 146.46 34.7456C143.851 32.3232 141.056 30.4599 138.075 28.0375C136.957 32.3233 137.329 33.0686 140.311 34.9319C141.056 35.3046 141.988 35.6773 142.547 36.4226C143.106 36.9816 143.478 37.727 143.665 38.4723C144.037 40.3357 144.037 42.3854 144.783 44.2487C146.273 47.4164 146.46 47.4164 150 46.4847Z" fill="white"/>
<path d="M3.1677 61.0189C4.84472 59.1556 6.52174 57.1059 8.01242 54.8698C9.31677 53.0065 10.6211 52.2611 12.6708 53.1928C13.9752 53.7518 14.5342 53.1928 15.2795 52.0748C16.5839 49.6525 17.8882 47.4164 19.3789 45.1804C20.3106 43.6897 20.8696 41.4537 22.1739 40.8947H22.3602C22.1739 43.1307 21.9876 45.1804 21.8012 47.4164C24.5963 46.6711 26.087 47.7891 27.5776 49.6524C29.0683 51.5158 30.7453 53.0065 32.4224 54.6835C32.6087 54.8698 33.1677 55.0562 33.354 55.2425C32.9814 53.5655 32.4224 52.0748 31.677 50.7705C30.559 48.7208 29.2547 46.6711 29.8137 44.0624C29.8137 43.6897 29.2547 42.9444 28.882 42.758C26.8323 42.0127 24.9689 41.4537 22.5466 40.7084C23.8509 40.3357 25.9006 41.081 27.3913 41.64C28.882 42.0127 29.6273 41.8264 30.3727 40.3357C31.677 37.168 32.795 34.0003 36.1491 32.3233C39.6894 30.2736 43.0435 27.8512 47.1429 25.2425C48.4472 26.9195 49.7515 28.5966 51.4286 30.6462C53.1056 27.2922 54.7826 24.3108 55.9006 21.3295C57.0186 18.1618 59.0683 16.8574 62.0497 16.2984C68.0124 14.9941 73.7888 12.9444 77.7019 7.91333C78.6335 6.79531 79.9379 5.86363 81.0559 4.74562C82.3602 5.86363 83.2919 6.79531 84.5963 7.54065C85.3416 7.91332 86.4596 8.09966 87.205 7.72699C89.6273 6.60897 91.8633 5.30463 94.0994 3.81395C95.7764 2.69593 96.7081 3.25494 97.4534 4.93195C96.8944 4.55928 96.3354 4.37295 95.5901 4.00028C94.8447 7.72699 93.913 11.2674 93.7267 14.8077C93.5404 16.6711 93.1677 16.4847 91.8633 16.1121C88.882 15.1804 88.882 15.1804 87.764 18.1618C86.087 22.0748 84.4099 25.9879 82.7329 29.9009C82.3602 30.6462 82.1739 31.5779 81.6149 32.8823C85.3416 31.7642 88.323 31.0189 91.8633 29.9009C93.1677 34.5593 94.472 38.845 95.5901 43.317C95.7764 43.317 95.9627 43.317 96.1491 43.317C97.8261 39.2177 99.5031 35.1183 101.366 30.6462C106.584 38.286 111.615 45.5531 116.646 53.1928C118.509 50.3978 120.186 48.1618 121.863 45.7394C124.658 47.9754 127.081 50.0251 129.689 52.0748C130.062 52.4475 130.807 53.0065 131.18 52.8202C134.348 52.0748 137.516 51.3295 141.056 50.3978C138.634 47.6028 136.77 45.1804 134.721 42.9444C133.789 42.0127 133.602 41.2674 133.602 40.1493C133.602 38.286 133.602 36.609 132.298 34.7456C128.571 29.5282 125.217 23.9382 121.677 18.5344C121.304 17.9754 120.932 17.6028 120.186 16.8574C118.696 20.2115 117.578 23.3792 116.087 26.7332C114.224 23.3792 114.224 19.6525 111.801 17.2301C113.292 18.1618 114.969 18.1618 116.832 17.2301C117.391 17.0438 117.95 16.8574 118.509 16.6711C119.814 16.1121 120.559 16.4848 121.304 17.6028C122.609 19.4661 123.913 21.3295 125.217 23.1928C127.267 26.1742 129.317 29.1556 131.366 32.1369C133.23 30.4599 134.721 28.9692 136.211 27.4785C136.957 26.7332 137.329 26.5469 138.261 27.2922C142.547 30.6462 147.019 33.4413 150.186 37.9133C151.863 40.522 154.099 41.64 157.081 41.081C158.571 40.8947 159.503 41.64 160.435 42.5717C165.652 48.7208 171.056 54.8698 176.273 61.0189C177.205 62.1369 178.323 62.6959 180 61.9506C179.441 61.3916 179.068 60.6462 178.696 60.2736C173.106 53.7518 167.329 47.0438 161.739 40.3357C160.062 38.4723 158.385 37.3543 155.963 37.727C154.099 38.0997 152.795 37.3543 151.677 35.8636C148.137 30.6462 142.733 27.4785 137.888 23.5655C136.77 22.8202 136.211 22.8202 135.28 23.7518C133.975 25.2425 132.671 26.5469 131.18 28.0375C128.385 24.1245 125.963 20.3978 123.354 16.6711C120.559 12.758 120.559 12.5717 116.087 14.2487C114.037 14.9941 112.733 14.6214 111.056 13.1307C106.398 8.845 101.739 4.93196 97.0807 0.832579C95.9627 -0.0990983 95.2174 -0.285432 93.913 0.45991C91.677 1.76426 89.2547 2.88227 86.8323 4.37295C85.7143 4.93196 85.1553 4.74562 84.4099 4.00028C83.2919 3.0686 82.1739 1.95059 80.8696 1.01891C78.4472 3.25494 76.0248 5.30463 73.9752 7.54065C71.9255 9.77668 69.5031 11.2674 66.5217 11.8264C63.913 12.3854 61.3043 13.317 58.6956 14.0624C57.205 14.4351 56.2733 15.1804 55.7143 16.6711C54.4099 19.8388 52.7329 22.8202 51.2422 25.9879C50.3106 24.8698 49.3789 24.3108 48.8199 23.3792C47.7019 21.8885 46.7702 22.0748 45.2795 23.0065C41.5528 25.6152 37.6397 28.0375 33.913 30.6462C32.795 31.3916 32.0497 32.5096 31.3043 33.8139C30.3727 35.3046 30 37.5407 28.6957 38.0997C27.3913 38.6587 25.3416 37.727 23.6646 37.168C22.3602 36.7953 21.8012 36.9816 21.0559 38.286C19.1925 41.64 17.3292 44.8077 15.4658 47.9754C14.7205 49.4661 13.7888 50.2115 12.1118 49.2798C10.6211 48.5344 9.68944 49.0934 8.75776 50.3978C6.14907 53.9382 3.54037 57.1059 0.745341 60.6462C0.372671 61.0189 0.186335 61.3916 0 61.9506C0.186335 62.1369 0.372671 62.3233 0.372671 62.5096C1.49068 61.9506 2.6087 61.5779 3.1677 61.0189Z" fill="white"/>
</svg>
