<svg width="180" height="63" viewBox="0 0 180 63" fill="none" xmlns="http://www.w3.org/2000/svg">
<path d="M85.2826 9.21764C83.9782 7.9133 82.6739 6.79528 80.9968 5.49094C79.5062 11.64 78.2018 17.2301 76.8975 22.6338C77.0838 22.6338 77.2701 22.8201 77.4565 22.8201C80.0652 18.7207 82.8602 14.6214 85.4689 10.522C85.6552 10.1493 85.4689 9.40398 85.2826 9.21764Z" fill="white"/>
<path d="M58.823 17.7891C58.823 17.9754 58.823 18.1617 58.823 18.3481C61.059 19.6524 63.295 20.7704 65.3447 22.2611C66.2764 22.8201 67.0218 23.7518 67.3944 24.6835C69.4441 30.6462 71.3075 36.7953 73.3572 42.758C73.7298 43.6897 74.1025 44.8077 74.4752 45.7394C74.6615 45.7394 74.8478 45.553 75.0342 45.553C74.6615 44.2487 74.4752 42.9443 74.1025 41.64C72.9845 36.6089 72.9845 36.6089 77.6429 35.3046C72.4255 29.5282 70.1895 22.8201 72.4255 14.8077C67.3944 16.1121 63.1087 17.0437 58.823 17.7891Z" fill="white"/>
<path d="M54.1646 30.4599C51.9286 31.7642 50.0652 31.2052 48.7609 29.1555C48.3882 28.5965 48.0155 28.0375 47.4565 27.8512C46.7112 27.6649 45.7795 27.2922 45.2205 27.6649C41.8665 29.7145 38.6988 32.1369 35.3447 34.3729C34.4131 34.9319 34.2267 35.4909 34.5994 36.609C36.6491 41.4537 38.3261 46.4847 40.3758 51.3295C40.5621 51.7021 40.7485 51.8885 41.3075 52.6338C41.6801 50.2114 41.6801 48.1618 42.0528 46.2984C42.4255 44.435 43.3572 42.758 44.1025 40.8947C44.2888 40.8947 44.4752 41.081 44.6615 41.081C45.9658 44.0624 47.2702 46.8574 48.5745 49.8388C48.7609 49.8388 48.9472 49.6524 49.3199 49.6524C49.1335 47.2301 48.7609 44.8077 48.5745 42.199C48.7609 42.0127 48.9472 41.8263 49.1335 41.64C50.2516 42.9444 51.1832 44.8077 52.4876 45.5531C59.0093 48.9071 65.9037 52.0748 72.6118 55.2425C72.9845 55.4288 73.5435 55.6152 74.1025 55.6152C72.9845 53.3791 71.8665 51.3295 70.3758 49.6524C68.6988 47.6027 67.2081 45.7394 68.5124 42.9444C67.3944 42.5717 66.6491 42.3854 65.9037 42.199C61.8044 41.64 60.5 38.286 58.823 35.3046C57.8913 33.8139 57.146 32.1369 56.2143 30.6462C55.8416 30.4599 54.7236 30.0872 54.1646 30.4599Z" fill="white"/>
<path d="M150.5 46.4847C154.227 45.5531 154.227 45.5531 156.09 48.9071C156.649 50.0251 157.394 50.9568 157.953 52.0748C160.376 56.7332 165.221 57.8512 168.761 61.0189C168.947 60.8326 168.947 60.8326 169.134 60.6462C168.947 60.0872 168.575 59.5282 168.388 58.9692C165.966 54.6835 163.357 50.5841 161.494 46.1121C160.003 42.758 158.14 41.081 154.413 41.8264C153.109 42.0127 152.177 41.4537 151.432 40.3357C150.127 38.286 148.823 36.2363 146.96 34.7456C144.351 32.3232 141.556 30.4599 138.575 28.0375C137.457 32.3233 137.829 33.0686 140.811 34.9319C141.556 35.3046 142.488 35.6773 143.047 36.4226C143.606 36.9816 143.978 37.727 144.165 38.4723C144.537 40.3357 144.537 42.3854 145.283 44.2487C146.773 47.4164 146.96 47.4164 150.5 46.4847Z" fill="white"/>
<path d="M3.6677 61.0189C5.34472 59.1556 7.02174 57.1059 8.51242 54.8698C9.81677 53.0065 11.1211 52.2611 13.1708 53.1928C14.4752 53.7518 15.0342 53.1928 15.7795 52.0748C17.0839 49.6525 18.3882 47.4164 19.8789 45.1804C20.8106 43.6897 21.3696 41.4537 22.6739 40.8947H22.8602C22.6739 43.1307 22.4876 45.1804 22.3012 47.4164C25.0963 46.6711 26.587 47.7891 28.0776 49.6524C29.5683 51.5158 31.2453 53.0065 32.9224 54.6835C33.1087 54.8698 33.6677 55.0562 33.854 55.2425C33.4814 53.5655 32.9224 52.0748 32.177 50.7705C31.059 48.7208 29.7547 46.6711 30.3137 44.0624C30.3137 43.6897 29.7547 42.9444 29.382 42.758C27.3323 42.0127 25.4689 41.4537 23.0466 40.7084C24.3509 40.3357 26.4006 41.081 27.8913 41.64C29.382 42.0127 30.1273 41.8264 30.8727 40.3357C32.177 37.168 33.295 34.0003 36.6491 32.3233C40.1894 30.2736 43.5435 27.8512 47.6429 25.2425C48.9472 26.9195 50.2515 28.5966 51.9286 30.6462C53.6056 27.2922 55.2826 24.3108 56.4006 21.3295C57.5186 18.1618 59.5683 16.8574 62.5497 16.2984C68.5124 14.9941 74.2888 12.9444 78.2019 7.91333C79.1335 6.79531 80.4379 5.86363 81.5559 4.74562C82.8602 5.86363 83.7919 6.79531 85.0963 7.54065C85.8416 7.91332 86.9596 8.09966 87.705 7.72699C90.1273 6.60897 92.3633 5.30463 94.5994 3.81395C96.2764 2.69593 97.2081 3.25494 97.9534 4.93195C97.3944 4.55928 96.8354 4.37295 96.0901 4.00028C95.3447 7.72699 94.413 11.2674 94.2267 14.8077C94.0404 16.6711 93.6677 16.4847 92.3633 16.1121C89.382 15.1804 89.382 15.1804 88.264 18.1618C86.587 22.0748 84.9099 25.9879 83.2329 29.9009C82.8602 30.6462 82.6739 31.5779 82.1149 32.8823C85.8416 31.7642 88.823 31.0189 92.3633 29.9009C93.6677 34.5593 94.972 38.845 96.0901 43.317C96.2764 43.317 96.4627 43.317 96.6491 43.317C98.3261 39.2177 100.003 35.1183 101.866 30.6462C107.084 38.286 112.115 45.5531 117.146 53.1928C119.009 50.3978 120.686 48.1618 122.363 45.7394C125.158 47.9754 127.581 50.0251 130.189 52.0748C130.562 52.4475 131.307 53.0065 131.68 52.8202C134.848 52.0748 138.016 51.3295 141.556 50.3978C139.134 47.6028 137.27 45.1804 135.221 42.9444C134.289 42.0127 134.102 41.2674 134.102 40.1493C134.102 38.286 134.102 36.609 132.798 34.7456C129.071 29.5282 125.717 23.9382 122.177 18.5344C121.804 17.9754 121.432 17.6028 120.686 16.8574C119.196 20.2115 118.078 23.3792 116.587 26.7332C114.724 23.3792 114.724 19.6525 112.301 17.2301C113.792 18.1618 115.469 18.1618 117.332 17.2301C117.891 17.0438 118.45 16.8574 119.009 16.6711C120.314 16.1121 121.059 16.4848 121.804 17.6028C123.109 19.4661 124.413 21.3295 125.717 23.1928C127.767 26.1742 129.817 29.1556 131.866 32.1369C133.73 30.4599 135.221 28.9692 136.711 27.4785C137.457 26.7332 137.829 26.5469 138.761 27.2922C143.047 30.6462 147.519 33.4413 150.686 37.9133C152.363 40.522 154.599 41.64 157.581 41.081C159.071 40.8947 160.003 41.64 160.935 42.5717C166.152 48.7208 171.556 54.8698 176.773 61.0189C177.705 62.1369 178.823 62.6959 180.5 61.9506C179.941 61.3916 179.568 60.6462 179.196 60.2736C173.606 53.7518 167.829 47.0438 162.239 40.3357C160.562 38.4723 158.885 37.3543 156.463 37.727C154.599 38.0997 153.295 37.3543 152.177 35.8636C148.637 30.6462 143.233 27.4785 138.388 23.5655C137.27 22.8202 136.711 22.8202 135.78 23.7518C134.475 25.2425 133.171 26.5469 131.68 28.0375C128.885 24.1245 126.463 20.3978 123.854 16.6711C121.059 12.758 121.059 12.5717 116.587 14.2487C114.537 14.9941 113.233 14.6214 111.556 13.1307C106.898 8.845 102.239 4.93196 97.5807 0.832579C96.4627 -0.0990983 95.7174 -0.285432 94.413 0.45991C92.177 1.76426 89.7547 2.88227 87.3323 4.37295C86.2143 4.93196 85.6553 4.74562 84.9099 4.00028C83.7919 3.0686 82.6739 1.95059 81.3696 1.01891C78.9472 3.25494 76.5248 5.30463 74.4752 7.54065C72.4255 9.77668 70.0031 11.2674 67.0217 11.8264C64.413 12.3854 61.8043 13.317 59.1956 14.0624C57.705 14.4351 56.7733 15.1804 56.2143 16.6711C54.9099 19.8388 53.2329 22.8202 51.7422 25.9879C50.8106 24.8698 49.8789 24.3108 49.3199 23.3792C48.2019 21.8885 47.2702 22.0748 45.7795 23.0065C42.0528 25.6152 38.1397 28.0375 34.413 30.6462C33.295 31.3916 32.5497 32.5096 31.8043 33.8139C30.8727 35.3046 30.5 37.5407 29.1957 38.0997C27.8913 38.6587 25.8416 37.727 24.1646 37.168C22.8602 36.7953 22.3012 36.9816 21.5559 38.286C19.6925 41.64 17.8292 44.8077 15.9658 47.9754C15.2205 49.4661 14.2888 50.2115 12.6118 49.2798C11.1211 48.5344 10.1894 49.0934 9.25776 50.3978C6.64907 53.9382 4.04037 57.1059 1.24534 60.6462C0.872671 61.0189 0.686335 61.3916 0.5 61.9506C0.686335 62.1369 0.872671 62.3233 0.872671 62.5096C1.99068 61.9506 3.1087 61.5779 3.6677 61.0189Z" fill="white"/>
</svg>
