<svg width="540" height="120" viewBox="0 0 540 120" fill="none" xmlns="http://www.w3.org/2000/svg">
<path d="M254.348 18.8616C250.435 16.1926 246.522 13.9049 241.491 11.2358C237.019 23.8184 233.106 35.257 229.193 46.3144C229.752 46.3144 230.311 46.6957 230.87 46.6957C238.696 38.3073 247.081 29.919 254.907 21.5306C255.466 20.768 254.907 19.2429 254.348 18.8616Z" fill="#131313" fill-opacity="0.5"/>
<path d="M174.969 36.4004C174.969 36.7817 174.969 37.163 174.969 37.5443C181.677 40.2133 188.385 42.501 194.534 45.5514C197.329 46.6952 199.565 48.6017 200.683 50.5081C206.832 62.7093 212.422 75.2919 218.571 87.4931C219.689 89.3995 220.807 91.6873 221.925 93.5937C222.484 93.5937 223.043 93.2124 223.602 93.2124C222.484 90.5434 221.925 87.8744 220.807 85.2054C217.453 74.9106 217.453 74.9106 231.428 72.2416C215.776 60.4216 209.068 46.6952 215.776 30.2998C200.683 32.9688 187.826 34.8753 174.969 36.4004Z" fill="#131313" fill-opacity="0.5"/>
<path d="M160.994 62.3283C154.286 64.9974 148.696 63.8535 144.783 59.6593C143.665 58.5154 142.547 57.3716 140.87 56.9903C138.634 56.609 135.839 55.8464 134.162 56.609C124.099 60.8032 114.596 65.7599 104.534 70.3354C101.739 71.4793 101.18 72.6231 102.298 74.9109C108.447 84.8244 113.478 95.1192 119.627 105.033C120.186 105.795 120.745 106.177 122.422 107.702C123.54 102.745 123.54 98.5508 124.658 94.7379C125.776 90.925 128.571 87.4934 130.807 83.6805C131.366 83.6805 131.925 84.0618 132.484 84.0618C136.398 90.1624 140.311 95.8817 144.224 101.982C144.783 101.982 145.342 101.601 146.46 101.601C145.901 96.6443 144.783 91.6876 144.224 86.3495C144.783 85.9682 145.342 85.5869 145.901 85.2057C149.255 87.8747 152.05 91.6876 155.963 93.2127C175.528 100.076 196.211 106.558 216.335 113.04C217.453 113.421 219.13 113.802 220.807 113.802C217.453 109.227 214.099 105.033 209.627 101.601C204.596 97.4069 200.124 93.594 204.037 87.8747C200.683 87.1121 198.447 86.7308 196.211 86.3495C183.913 85.2056 180 78.3425 174.969 72.2418C172.174 69.1915 169.938 65.7599 167.143 62.7096C166.025 62.3283 162.671 61.5658 160.994 62.3283Z" fill="#131313" fill-opacity="0.5"/>
<path d="M450 95.1192C461.18 93.2127 461.18 93.2127 466.77 100.076C468.447 102.364 470.683 104.27 472.36 106.558C479.627 116.09 494.161 118.378 504.782 124.86C505.342 124.478 505.341 124.478 505.9 124.097C505.341 122.953 504.224 121.809 503.665 120.665C496.397 111.896 488.571 103.508 482.981 94.3566C478.509 87.4934 472.919 84.0618 461.739 85.587C457.826 85.9682 455.031 84.8244 452.795 82.5366C448.882 78.3425 444.969 74.1483 439.379 71.098C431.553 66.1412 423.168 62.3283 414.224 57.3716C410.869 66.1412 411.987 67.6664 420.932 71.4793C423.168 72.2418 425.963 73.0044 427.64 74.5296C429.317 75.6734 430.435 77.1986 430.994 78.7237C432.112 82.5366 432.112 86.7308 434.348 90.5437C438.82 97.0256 439.379 97.0256 450 95.1192Z" fill="#131313" fill-opacity="0.5"/>
<path d="M9.50311 124.86C14.5342 121.047 19.5652 116.853 24.0373 112.277C27.9503 108.465 31.8634 106.939 38.0124 108.846C41.9255 109.99 43.6025 108.846 45.8385 106.558C49.7515 101.601 53.6646 97.0258 58.1366 92.4504C60.9317 89.4001 62.6087 84.8246 66.5217 83.6807H67.0807C66.5217 88.2562 65.9627 92.4504 65.4037 97.0258C73.7888 95.5007 78.2609 97.7884 82.7329 101.601C87.205 105.414 92.236 108.464 97.2671 111.896C97.8261 112.277 99.5031 112.659 100.062 113.04C98.9441 109.608 97.2671 106.558 95.0311 103.889C91.677 99.6949 87.764 95.5007 89.441 90.1626C89.441 89.4001 87.764 87.8749 86.646 87.4936C80.4969 85.9685 74.9068 84.8246 67.6397 83.2994C71.5528 82.5369 77.7019 84.062 82.1739 85.2059C86.646 85.9685 88.882 85.5872 91.118 82.5369C95.031 76.0549 98.3851 69.573 108.447 66.1414C119.068 61.9473 129.13 56.9905 141.429 51.6525C145.342 55.0841 149.255 58.5157 154.286 62.7099C159.317 55.8467 164.348 49.746 167.702 43.6454C171.056 37.1635 177.205 34.4945 186.149 33.3506C204.037 30.6816 221.366 26.4874 233.106 16.1926C235.901 13.9049 239.814 11.9985 243.168 9.71073C247.081 11.9985 249.876 13.9049 253.789 15.4301C256.025 16.1926 259.379 16.5739 261.615 15.8113C268.882 13.5236 275.59 10.8546 282.298 7.80428C287.329 5.51655 290.124 6.66041 292.36 10.092C290.683 9.32943 289.006 8.94815 286.77 8.18557C284.534 15.8113 281.739 23.0558 281.18 30.3003C280.621 34.1132 279.503 33.7319 275.59 32.9693C266.646 31.0629 266.646 31.0629 263.292 37.1635C258.261 45.1706 253.23 53.1776 248.199 61.1847C247.081 62.7099 246.522 64.6163 244.845 67.2853C256.025 64.9976 264.969 63.4724 275.59 61.1847C279.503 70.7169 283.416 79.4866 286.77 88.6375C287.329 88.6375 287.888 88.6375 288.447 88.6375C293.478 80.2491 298.509 71.8608 304.099 62.7099C319.752 78.3427 334.845 93.2129 349.938 108.846C355.528 103.126 360.559 98.551 365.59 93.5942C373.975 98.1697 381.242 102.364 389.068 106.558C390.186 107.321 392.422 108.464 393.54 108.083C403.043 106.558 412.547 105.033 423.168 103.126C415.901 97.4071 410.311 92.4504 404.161 87.8749C401.366 85.9685 400.807 84.4433 400.807 82.1556C400.807 78.3427 400.807 74.9111 396.894 71.0982C385.714 60.4221 375.652 48.9835 365.031 37.9261C363.913 36.7822 362.795 36.0196 360.559 34.4945C356.087 41.3577 352.733 47.8396 348.261 54.7028C342.671 47.8396 342.671 40.2138 335.404 35.2571C339.876 37.1635 344.907 37.1635 350.497 35.2571C352.174 34.8758 353.851 34.4945 355.528 34.1132C359.441 32.9693 361.677 33.7319 363.913 36.0197C367.826 39.8325 371.739 43.6454 375.652 47.4583C381.801 53.5589 387.95 59.6595 394.099 65.7602C399.689 62.3286 404.161 59.2783 408.634 56.2279C410.87 54.7028 411.988 54.3215 414.783 55.8467C427.64 62.7098 441.056 68.4292 450.559 77.5801C455.59 82.9182 462.298 85.2059 471.242 84.062C475.714 83.6807 478.509 85.2059 481.304 87.1123C496.957 99.6949 513.168 112.277 528.82 124.86C531.615 127.148 534.969 128.292 540 126.766C538.323 125.622 537.205 124.097 536.087 123.335C519.317 109.99 501.988 96.2633 485.217 82.5369C480.186 78.724 475.155 76.4362 467.888 77.1988C462.298 77.9614 458.385 76.4362 455.031 73.3859C444.41 62.7099 428.199 56.2279 413.665 48.2209C410.311 46.6957 408.634 46.6957 405.839 48.6022C401.925 51.6525 398.012 54.3215 393.54 57.3718C385.155 49.3647 377.888 41.739 370.062 34.1132C361.677 26.1061 361.677 25.7248 348.261 29.1564C342.112 30.6816 338.199 29.919 333.168 26.8687C319.193 18.0991 305.217 10.092 291.242 1.70366C287.888 -0.20278 285.652 -0.584064 281.739 0.94109C275.031 3.61011 267.764 5.89784 260.497 8.94815C257.143 10.092 255.466 9.71073 253.23 8.18557C249.876 6.27913 246.522 3.9914 242.609 2.08495C235.342 6.66042 228.075 10.8546 221.925 15.4301C215.776 20.0055 208.509 23.0558 199.565 24.1997C191.739 25.3436 183.913 27.25 176.087 28.7752C171.615 29.5377 168.82 31.0629 167.143 34.1132C163.23 40.5951 158.199 46.6957 153.727 53.1776C150.932 50.8899 148.137 49.746 146.46 47.8396C143.106 44.7893 140.311 45.1706 135.839 47.077C124.658 52.4151 112.919 57.3718 101.739 62.7099C98.3851 64.235 96.1491 66.5227 93.913 69.1918C91.118 72.2421 90 76.8175 86.087 77.9614C82.1739 79.1053 76.0248 77.1988 70.9938 76.055C67.0807 75.2924 65.4037 75.6737 63.1677 78.3427C57.5776 85.2059 51.9876 91.6878 46.3975 98.1697C44.1615 101.22 41.3665 102.745 36.3354 100.839C31.8634 99.3136 29.0683 100.457 26.2733 103.126C18.4472 110.371 10.6211 116.853 2.23602 124.097C1.11801 124.86 0.559006 125.622 0 126.766C0.559006 127.148 1.11801 127.529 1.11801 127.91C4.47205 126.766 7.82609 126.004 9.50311 124.86Z" fill="#131313" fill-opacity="0.5"/>
</svg>
